<?xml version="1.0" standalone="no"?>
<!DOCTYPE svg PUBLIC "-//W3C//DTD SVG 1.1//EN" "http://www.w3.org/Graphics/SVG/1.1/DTD/svg11.dtd">
<svg version="1.1" width="1200" height="390" onload="init(evt)" viewBox="0 0 1200 390" xmlns="http://www.w3.org/2000/svg" xmlns:xlink="http://www.w3.org/1999/xlink">
<!-- Flame graph stack visualization. See https://github.com/brendangregg/FlameGraph for latest version, and http://www.brendangregg.com/flamegraphs.html for examples. -->
<!-- NOTES:  -->
<defs>
	<linearGradient id="background" y1="0" y2="1" x1="0" x2="0" >
		<stop stop-color="#eeeeee" offset="5%" />
		<stop stop-color="#eeeeb0" offset="95%" />
	</linearGradient>
</defs>
<style type="text/css">
	text { font-family:Verdana; font-size:12px; fill:rgb(0,0,0); }
	#search, #ignorecase { opacity:0.1; cursor:pointer; }
	#search:hover, #search.show, #ignorecase:hover, #ignorecase.show { opacity:1; }
	#subtitle { text-anchor:middle; font-color:rgb(160,160,160); }
	#title { text-anchor:middle; font-size:17px}
	#unzoom { cursor:pointer; }
	#frames > *:hover { stroke:black; stroke-width:0.5; cursor:pointer; }
	.hide { display:none; }
	.parent { opacity:0.5; }
</style>
<script type="text/ecmascript">
<![CDATA[
	"use strict";
	var details, searchbtn, unzoombtn, matchedtxt, svg, searching, currentSearchTerm, ignorecase, ignorecaseBtn;
	function init(evt) {
		details = document.getElementById("details").firstChild;
		searchbtn = document.getElementById("search");
		ignorecaseBtn = document.getElementById("ignorecase");
		unzoombtn = document.getElementById("unzoom");
		matchedtxt = document.getElementById("matched");
		svg = document.getElementsByTagName("svg")[0];
		searching = 0;
		currentSearchTerm = null;

		// use GET parameters to restore a flamegraphs state.
		var params = get_params();
		if (params.x && params.y)
			zoom(find_group(document.querySelector('[x="' + params.x + '"][y="' + params.y + '"]')));
                if (params.s) search(params.s);
	}

	// event listeners
	window.addEventListener("click", function(e) {
		var target = find_group(e.target);
		if (target) {
			if (target.nodeName == "a") {
				if (e.ctrlKey === false) return;
				e.preventDefault();
			}
			if (target.classList.contains("parent")) unzoom();
			zoom(target);
			if (!document.querySelector('.parent')) {
				clearzoom();
				return;
			}

			// set parameters for zoom state
			var el = target.querySelector("rect");
			if (el && el.attributes && el.attributes.y && el.attributes._orig_x) {
				var params = get_params()
				params.x = el.attributes._orig_x.value;
				params.y = el.attributes.y.value;
				history.replaceState(null, null, parse_params(params));
			}
		}
		else if (e.target.id == "unzoom") clearzoom();
		else if (e.target.id == "search") search_prompt();
		else if (e.target.id == "ignorecase") toggle_ignorecase();
	}, false)

	// mouse-over for info
	// show
	window.addEventListener("mouseover", function(e) {
		var target = find_group(e.target);
		if (target) details.nodeValue = "Function: " + g_to_text(target);
	}, false)

	// clear
	window.addEventListener("mouseout", function(e) {
		var target = find_group(e.target);
		if (target) details.nodeValue = ' ';
	}, false)

	// ctrl-F for search
	// ctrl-I to toggle case-sensitive search
	window.addEventListener("keydown",function (e) {
		if (e.keyCode === 114 || (e.ctrlKey && e.keyCode === 70)) {
			e.preventDefault();
			search_prompt();
		}
		else if (e.ctrlKey && e.keyCode === 73) {
			e.preventDefault();
			toggle_ignorecase();
		}
	}, false)

	// functions
	function get_params() {
		var params = {};
		var paramsarr = window.location.search.substr(1).split('&');
		for (var i = 0; i < paramsarr.length; ++i) {
			var tmp = paramsarr[i].split("=");
			if (!tmp[0] || !tmp[1]) continue;
			params[tmp[0]]  = decodeURIComponent(tmp[1]);
		}
		return params;
	}
	function parse_params(params) {
		var uri = "?";
		for (var key in params) {
			uri += key + '=' + encodeURIComponent(params[key]) + '&';
		}
		if (uri.slice(-1) == "&")
			uri = uri.substring(0, uri.length - 1);
		if (uri == '?')
			uri = window.location.href.split('?')[0];
		return uri;
	}
	function find_child(node, selector) {
		var children = node.querySelectorAll(selector);
		if (children.length) return children[0];
	}
	function find_group(node) {
		var parent = node.parentElement;
		if (!parent) return;
		if (parent.id == "frames") return node;
		return find_group(parent);
	}
	function orig_save(e, attr, val) {
		if (e.attributes["_orig_" + attr] != undefined) return;
		if (e.attributes[attr] == undefined) return;
		if (val == undefined) val = e.attributes[attr].value;
		e.setAttribute("_orig_" + attr, val);
	}
	function orig_load(e, attr) {
		if (e.attributes["_orig_"+attr] == undefined) return;
		e.attributes[attr].value = e.attributes["_orig_" + attr].value;
		e.removeAttribute("_orig_"+attr);
	}
	function g_to_text(e) {
		var text = find_child(e, "title").firstChild.nodeValue;
		return (text)
	}
	function g_to_func(e) {
		var func = g_to_text(e);
		// if there's any manipulation we want to do to the function
		// name before it's searched, do it here before returning.
		return (func);
	}
	function update_text(e) {
		var r = find_child(e, "rect");
		var t = find_child(e, "text");
		var w = parseFloat(r.attributes.width.value) -3;
		var txt = find_child(e, "title").textContent.replace(/\([^(]*\)$/,"");
		t.attributes.x.value = parseFloat(r.attributes.x.value) + 3;

		// Smaller than this size won't fit anything
		if (w < 2 * 12 * 0.59) {
			t.textContent = "";
			return;
		}

		t.textContent = txt;
		// Fit in full text width
		if (/^ *$/.test(txt) || t.getSubStringLength(0, txt.length) < w)
			return;

		for (var x = txt.length - 2; x > 0; x--) {
			if (t.getSubStringLength(0, x + 2) <= w) {
				t.textContent = txt.substring(0, x) + "..";
				return;
			}
		}
		t.textContent = "";
	}

	// zoom
	function zoom_reset(e) {
		if (e.attributes != undefined) {
			orig_load(e, "x");
			orig_load(e, "width");
		}
		if (e.childNodes == undefined) return;
		for (var i = 0, c = e.childNodes; i < c.length; i++) {
			zoom_reset(c[i]);
		}
	}
	function zoom_child(e, x, ratio) {
		if (e.attributes != undefined) {
			if (e.attributes.x != undefined) {
				orig_save(e, "x");
				e.attributes.x.value = (parseFloat(e.attributes.x.value) - x - 10) * ratio + 10;
				if (e.tagName == "text")
					e.attributes.x.value = find_child(e.parentNode, "rect[x]").attributes.x.value + 3;
			}
			if (e.attributes.width != undefined) {
				orig_save(e, "width");
				e.attributes.width.value = parseFloat(e.attributes.width.value) * ratio;
			}
		}

		if (e.childNodes == undefined) return;
		for (var i = 0, c = e.childNodes; i < c.length; i++) {
			zoom_child(c[i], x - 10, ratio);
		}
	}
	function zoom_parent(e) {
		if (e.attributes) {
			if (e.attributes.x != undefined) {
				orig_save(e, "x");
				e.attributes.x.value = 10;
			}
			if (e.attributes.width != undefined) {
				orig_save(e, "width");
				e.attributes.width.value = parseInt(svg.width.baseVal.value) - (10 * 2);
			}
		}
		if (e.childNodes == undefined) return;
		for (var i = 0, c = e.childNodes; i < c.length; i++) {
			zoom_parent(c[i]);
		}
	}
	function zoom(node) {
		var attr = find_child(node, "rect").attributes;
		var width = parseFloat(attr.width.value);
		var xmin = parseFloat(attr.x.value);
		var xmax = parseFloat(xmin + width);
		var ymin = parseFloat(attr.y.value);
		var ratio = (svg.width.baseVal.value - 2 * 10) / width;

		// XXX: Workaround for JavaScript float issues (fix me)
		var fudge = 0.0001;

		unzoombtn.classList.remove("hide");

		var el = document.getElementById("frames").children;
		for (var i = 0; i < el.length; i++) {
			var e = el[i];
			var a = find_child(e, "rect").attributes;
			var ex = parseFloat(a.x.value);
			var ew = parseFloat(a.width.value);
			var upstack;
			// Is it an ancestor
			if (0 == 0) {
				upstack = parseFloat(a.y.value) > ymin;
			} else {
				upstack = parseFloat(a.y.value) < ymin;
			}
			if (upstack) {
				// Direct ancestor
				if (ex <= xmin && (ex+ew+fudge) >= xmax) {
					e.classList.add("parent");
					zoom_parent(e);
					update_text(e);
				}
				// not in current path
				else
					e.classList.add("hide");
			}
			// Children maybe
			else {
				// no common path
				if (ex < xmin || ex + fudge >= xmax) {
					e.classList.add("hide");
				}
				else {
					zoom_child(e, xmin, ratio);
					update_text(e);
				}
			}
		}
		search();
	}
	function unzoom() {
		unzoombtn.classList.add("hide");
		var el = document.getElementById("frames").children;
		for(var i = 0; i < el.length; i++) {
			el[i].classList.remove("parent");
			el[i].classList.remove("hide");
			zoom_reset(el[i]);
			update_text(el[i]);
		}
		search();
	}
	function clearzoom() {
		unzoom();

		// remove zoom state
		var params = get_params();
		if (params.x) delete params.x;
		if (params.y) delete params.y;
		history.replaceState(null, null, parse_params(params));
	}

	// search
	function toggle_ignorecase() {
		ignorecase = !ignorecase;
		if (ignorecase) {
			ignorecaseBtn.classList.add("show");
		} else {
			ignorecaseBtn.classList.remove("show");
		}
		reset_search();
		search();
	}
	function reset_search() {
		var el = document.querySelectorAll("#frames rect");
		for (var i = 0; i < el.length; i++) {
			orig_load(el[i], "fill")
		}
		var params = get_params();
		delete params.s;
		history.replaceState(null, null, parse_params(params));
	}
	function search_prompt() {
		if (!searching) {
			var term = prompt("Enter a search term (regexp " +
			    "allowed, eg: ^ext4_)"
			    + (ignorecase ? ", ignoring case" : "")
			    + "\nPress Ctrl-i to toggle case sensitivity", "");
			if (term != null) search(term);
		} else {
			reset_search();
			searching = 0;
			currentSearchTerm = null;
			searchbtn.classList.remove("show");
			searchbtn.firstChild.nodeValue = "Search"
			matchedtxt.classList.add("hide");
			matchedtxt.firstChild.nodeValue = ""
		}
	}
	function search(term) {
		if (term) currentSearchTerm = term;

		var re = new RegExp(currentSearchTerm, ignorecase ? 'i' : '');
		var el = document.getElementById("frames").children;
		var matches = new Object();
		var maxwidth = 0;
		for (var i = 0; i < el.length; i++) {
			var e = el[i];
			var func = g_to_func(e);
			var rect = find_child(e, "rect");
			if (func == null || rect == null)
				continue;

			// Save max width. Only works as we have a root frame
			var w = parseFloat(rect.attributes.width.value);
			if (w > maxwidth)
				maxwidth = w;

			if (func.match(re)) {
				// highlight
				var x = parseFloat(rect.attributes.x.value);
				orig_save(rect, "fill");
				rect.attributes.fill.value = "rgb(230,0,230)";

				// remember matches
				if (matches[x] == undefined) {
					matches[x] = w;
				} else {
					if (w > matches[x]) {
						// overwrite with parent
						matches[x] = w;
					}
				}
				searching = 1;
			}
		}
		if (!searching)
			return;
		var params = get_params();
		params.s = currentSearchTerm;
		history.replaceState(null, null, parse_params(params));

		searchbtn.classList.add("show");
		searchbtn.firstChild.nodeValue = "Reset Search";

		// calculate percent matched, excluding vertical overlap
		var count = 0;
		var lastx = -1;
		var lastw = 0;
		var keys = Array();
		for (k in matches) {
			if (matches.hasOwnProperty(k))
				keys.push(k);
		}
		// sort the matched frames by their x location
		// ascending, then width descending
		keys.sort(function(a, b){
			return a - b;
		});
		// Step through frames saving only the biggest bottom-up frames
		// thanks to the sort order. This relies on the tree property
		// where children are always smaller than their parents.
		var fudge = 0.0001;	// JavaScript floating point
		for (var k in keys) {
			var x = parseFloat(keys[k]);
			var w = matches[keys[k]];
			if (x >= lastx + lastw - fudge) {
				count += w;
				lastx = x;
				lastw = w;
			}
		}
		// display matched percent
		matchedtxt.classList.remove("hide");
		var pct = 100 * count / maxwidth;
		if (pct != 100) pct = pct.toFixed(1)
		matchedtxt.firstChild.nodeValue = "Matched: " + pct + "%";
	}
]]>
</script>
<rect x="0.0" y="0" width="1200.0" height="390.0" fill="url(#background)"  />
<text id="title" x="600.00" y="24" >CPI Flame Graph: blue=stalls, red=instructions</text>
<text id="details" x="10.00" y="373" > </text>
<text id="unzoom" x="10.00" y="24" class="hide">Reset Zoom</text>
<text id="search" x="1090.00" y="24" >Search</text>
<text id="ignorecase" x="1174.00" y="24" >ic</text>
<text id="matched" x="1090.00" y="373" > </text>
<g id="frames">
<g >
<title>__wake_up_common_lock (1 samples, 0.02%; 0.00%)</title><rect x="1189.8" y="117" width="0.2" height="15.0" fill="rgb(255,255,255)" rx="2" ry="2" />
<text  x="1192.82" y="127.5" ></text>
</g>
<g >
<title>try_to_wake_up (1 samples, 0.02%; 0.00%)</title><rect x="875.4" y="101" width="0.2" height="15.0" fill="rgb(255,255,255)" rx="2" ry="2" />
<text  x="878.43" y="111.5" ></text>
</g>
<g >
<title>a.out (6,587 samples, 100.00%; 0.00%)</title><rect x="10.0" y="325" width="1180.0" height="15.0" fill="rgb(255,255,255)" rx="2" ry="2" />
<text  x="13.00" y="335.5" >a.out</text>
</g>
<g >
<title>asm_sysvec_irq_work (1 samples, 0.02%; 0.00%)</title><rect x="1189.8" y="245" width="0.2" height="15.0" fill="rgb(255,255,255)" rx="2" ry="2" />
<text  x="1192.82" y="255.5" ></text>
</g>
<g >
<title>pick_next_task_fair (1 samples, 0.02%; 0.00%)</title><rect x="1188.7" y="165" width="0.2" height="15.0" fill="rgb(255,255,255)" rx="2" ry="2" />
<text  x="1191.75" y="175.5" ></text>
</g>
<g >
<title>exit_to_user_mode_prepare (2 samples, 0.03%; 0.00%)</title><rect x="872.4" y="213" width="0.3" height="15.0" fill="rgb(255,255,255)" rx="2" ry="2" />
<text  x="875.38" y="223.5" ></text>
</g>
<g >
<title>irq_work_run (1 samples, 0.02%; 0.00%)</title><rect x="1189.8" y="197" width="0.2" height="15.0" fill="rgb(255,255,255)" rx="2" ry="2" />
<text  x="1192.82" y="207.5" ></text>
</g>
<g >
<title>send_call_function_single_ipi (1 samples, 0.02%; +0.02%)</title><rect x="1189.8" y="37" width="0.2" height="15.0" fill="rgb(255,209,209)" rx="2" ry="2" />
<text  x="1192.82" y="47.5" ></text>
</g>
<g >
<title>timerqueue_del (1 samples, 0.02%; +0.02%)</title><rect x="872.9" y="149" width="0.2" height="15.0" fill="rgb(255,209,209)" rx="2" ry="2" />
<text  x="875.92" y="159.5" ></text>
</g>
<g >
<title>update_process_times (7 samples, 0.11%; +0.02%)</title><rect x="873.5" y="133" width="1.2" height="15.0" fill="rgb(255,209,209)" rx="2" ry="2" />
<text  x="876.46" y="143.5" ></text>
</g>
<g >
<title>hrtimer_active (1 samples, 0.02%; +0.02%)</title><rect x="874.0" y="85" width="0.2" height="15.0" fill="rgb(255,209,209)" rx="2" ry="2" />
<text  x="877.00" y="95.5" ></text>
</g>
<g >
<title>cpuacct_account_field (1 samples, 0.02%; +0.02%)</title><rect x="873.6" y="101" width="0.2" height="15.0" fill="rgb(255,209,209)" rx="2" ry="2" />
<text  x="876.64" y="111.5" ></text>
</g>
<g >
<title>task_tick_fair (2 samples, 0.03%; 0.00%)</title><rect x="874.0" y="101" width="0.4" height="15.0" fill="rgb(255,255,255)" rx="2" ry="2" />
<text  x="877.00" y="111.5" ></text>
</g>
<g >
<title>__intel_pmu_enable_all.constprop.39 (1 samples, 0.02%; +0.02%)</title><rect x="872.4" y="133" width="0.2" height="15.0" fill="rgb(255,209,209)" rx="2" ry="2" />
<text  x="875.38" y="143.5" ></text>
</g>
<g >
<title>run_timer_softirq (1 samples, 0.02%; 0.00%)</title><rect x="875.4" y="149" width="0.2" height="15.0" fill="rgb(255,255,255)" rx="2" ry="2" />
<text  x="878.43" y="159.5" ></text>
</g>
<g >
<title>tick_sched_handle.isra.25 (3 samples, 0.05%; 0.00%)</title><rect x="1189.1" y="149" width="0.5" height="15.0" fill="rgb(255,255,255)" rx="2" ry="2" />
<text  x="1192.10" y="159.5" ></text>
</g>
<g >
<title>schedule (2 samples, 0.03%; 0.00%)</title><rect x="872.4" y="197" width="0.3" height="15.0" fill="rgb(255,255,255)" rx="2" ry="2" />
<text  x="875.38" y="207.5" ></text>
</g>
<g >
<title>pollwake (1 samples, 0.02%; 0.00%)</title><rect x="1189.8" y="85" width="0.2" height="15.0" fill="rgb(255,255,255)" rx="2" ry="2" />
<text  x="1192.82" y="95.5" ></text>
</g>
<g >
<title>irqentry_exit_to_user_mode (1 samples, 0.02%; 0.00%)</title><rect x="1188.7" y="229" width="0.2" height="15.0" fill="rgb(255,255,255)" rx="2" ry="2" />
<text  x="1191.75" y="239.5" ></text>
</g>
<g >
<title>ttwu_do_activate (1 samples, 0.02%; 0.00%)</title><rect x="875.4" y="85" width="0.2" height="15.0" fill="rgb(255,255,255)" rx="2" ry="2" />
<text  x="878.43" y="95.5" ></text>
</g>
<g >
<title>net_rx_action (2 samples, 0.03%; 0.00%)</title><rect x="872.0" y="149" width="0.4" height="15.0" fill="rgb(255,255,255)" rx="2" ry="2" />
<text  x="875.03" y="159.5" ></text>
</g>
<g >
<title>tick_sched_handle.isra.25 (7 samples, 0.11%; 0.00%)</title><rect x="873.5" y="149" width="1.2" height="15.0" fill="rgb(255,255,255)" rx="2" ry="2" />
<text  x="876.46" y="159.5" ></text>
</g>
<g >
<title>common_interrupt (2 samples, 0.03%; 0.00%)</title><rect x="872.0" y="229" width="0.4" height="15.0" fill="rgb(255,255,255)" rx="2" ry="2" />
<text  x="875.03" y="239.5" ></text>
</g>
<g >
<title>__queue_work (1 samples, 0.02%; 0.00%)</title><rect x="875.4" y="117" width="0.2" height="15.0" fill="rgb(255,255,255)" rx="2" ry="2" />
<text  x="878.43" y="127.5" ></text>
</g>
<g >
<title>perf_event_wakeup (1 samples, 0.02%; 0.00%)</title><rect x="1189.8" y="133" width="0.2" height="15.0" fill="rgb(255,255,255)" rx="2" ry="2" />
<text  x="1192.82" y="143.5" ></text>
</g>
<g >
<title>__sched_text_start (1 samples, 0.02%; 0.00%)</title><rect x="1188.7" y="181" width="0.2" height="15.0" fill="rgb(255,255,255)" rx="2" ry="2" />
<text  x="1191.75" y="191.5" ></text>
</g>
<g >
<title>irq_exit_rcu (3 samples, 0.05%; 0.00%)</title><rect x="875.1" y="213" width="0.5" height="15.0" fill="rgb(255,255,255)" rx="2" ry="2" />
<text  x="878.07" y="223.5" ></text>
</g>
<g >
<title>tick_sched_timer (7 samples, 0.11%; 0.00%)</title><rect x="873.5" y="165" width="1.2" height="15.0" fill="rgb(255,255,255)" rx="2" ry="2" />
<text  x="876.46" y="175.5" ></text>
</g>
<g >
<title>native_apic_msr_eoi_write (1 samples, 0.02%; +0.02%)</title><rect x="1189.6" y="197" width="0.2" height="15.0" fill="rgb(255,209,209)" rx="2" ry="2" />
<text  x="1192.64" y="207.5" ></text>
</g>
<g >
<title>asm_sysvec_apic_timer_interrupt (18 samples, 0.27%; -0.21%)</title><rect x="872.4" y="245" width="3.2" height="15.0" fill="rgb(208,208,255)" rx="2" ry="2" />
<text  x="875.38" y="255.5" ></text>
</g>
<g >
<title>__do_softirq (2 samples, 0.03%; 0.00%)</title><rect x="872.0" y="165" width="0.4" height="15.0" fill="rgb(255,255,255)" rx="2" ry="2" />
<text  x="875.03" y="175.5" ></text>
</g>
<g >
<title>ttwu_do_activate (2 samples, 0.03%; 0.00%)</title><rect x="873.1" y="133" width="0.4" height="15.0" fill="rgb(255,255,255)" rx="2" ry="2" />
<text  x="876.10" y="143.5" ></text>
</g>
<g >
<title>scheduler_tick (3 samples, 0.05%; 0.00%)</title><rect x="1189.1" y="117" width="0.5" height="15.0" fill="rgb(255,255,255)" rx="2" ry="2" />
<text  x="1192.10" y="127.5" ></text>
</g>
<g >
<title>arch_scale_freq_tick (1 samples, 0.02%; +0.02%)</title><rect x="873.8" y="101" width="0.2" height="15.0" fill="rgb(255,209,209)" rx="2" ry="2" />
<text  x="876.82" y="111.5" ></text>
</g>
<g >
<title>set_next_entity (1 samples, 0.02%; +0.02%)</title><rect x="872.6" y="149" width="0.1" height="15.0" fill="rgb(255,209,209)" rx="2" ry="2" />
<text  x="875.56" y="159.5" ></text>
</g>
<g >
<title>scheduler_tick (3 samples, 0.05%; 0.00%)</title><rect x="873.8" y="117" width="0.6" height="15.0" fill="rgb(255,255,255)" rx="2" ry="2" />
<text  x="876.82" y="127.5" ></text>
</g>
<g >
<title>memory_bound (1,755 samples, 26.64%; -43.95%)</title><rect x="875.6" y="261" width="314.4" height="15.0" fill="rgb(2,2,255)" rx="2" ry="2" />
<text  x="878.61" y="271.5" >memory_bound</text>
</g>
<g >
<title>__perf_event_task_sched_in (1 samples, 0.02%; 0.00%)</title><rect x="872.4" y="149" width="0.2" height="15.0" fill="rgb(255,255,255)" rx="2" ry="2" />
<text  x="875.38" y="159.5" ></text>
</g>
<g >
<title>__sysvec_apic_timer_interrupt (5 samples, 0.08%; 0.00%)</title><rect x="1188.9" y="213" width="0.9" height="15.0" fill="rgb(255,255,255)" rx="2" ry="2" />
<text  x="1191.93" y="223.5" ></text>
</g>
<g >
<title>asm_call_irq_on_stack (2 samples, 0.03%; 0.00%)</title><rect x="872.0" y="181" width="0.4" height="15.0" fill="rgb(255,255,255)" rx="2" ry="2" />
<text  x="875.03" y="191.5" ></text>
</g>
<g >
<title>__sysvec_irq_work (1 samples, 0.02%; 0.00%)</title><rect x="1189.8" y="213" width="0.2" height="15.0" fill="rgb(255,255,255)" rx="2" ry="2" />
<text  x="1192.82" y="223.5" ></text>
</g>
<g >
<title>timerqueue_del (1 samples, 0.02%; +0.02%)</title><rect x="1188.9" y="149" width="0.2" height="15.0" fill="rgb(255,209,209)" rx="2" ry="2" />
<text  x="1191.93" y="159.5" ></text>
</g>
<g >
<title>lapic_next_deadline (1 samples, 0.02%; -0.11%)</title><rect x="874.9" y="165" width="0.2" height="15.0" fill="rgb(209,209,255)" rx="2" ry="2" />
<text  x="877.89" y="175.5" ></text>
</g>
<g >
<title>call_timer_fn (1 samples, 0.02%; 0.00%)</title><rect x="875.4" y="133" width="0.2" height="15.0" fill="rgb(255,255,255)" rx="2" ry="2" />
<text  x="878.43" y="143.5" ></text>
</g>
<g >
<title>irq_exit_rcu (2 samples, 0.03%; 0.00%)</title><rect x="872.0" y="213" width="0.4" height="15.0" fill="rgb(255,255,255)" rx="2" ry="2" />
<text  x="875.03" y="223.5" ></text>
</g>
<g >
<title>__remove_hrtimer (1 samples, 0.02%; 0.00%)</title><rect x="1188.9" y="165" width="0.2" height="15.0" fill="rgb(255,255,255)" rx="2" ry="2" />
<text  x="1191.93" y="175.5" ></text>
</g>
<g >
<title>update_process_times (3 samples, 0.05%; 0.00%)</title><rect x="1189.1" y="133" width="0.5" height="15.0" fill="rgb(255,255,255)" rx="2" ry="2" />
<text  x="1192.10" y="143.5" ></text>
</g>
<g >
<title>ice_napi_poll (2 samples, 0.03%; +0.03%)</title><rect x="872.0" y="133" width="0.4" height="15.0" fill="rgb(255,209,209)" rx="2" ry="2" />
<text  x="875.03" y="143.5" ></text>
</g>
<g >
<title>__x86_indirect_thunk_rax (1 samples, 0.02%; +0.02%)</title><rect x="874.7" y="165" width="0.2" height="15.0" fill="rgb(255,209,209)" rx="2" ry="2" />
<text  x="877.71" y="175.5" ></text>
</g>
<g >
<title>trigger_load_balance (2 samples, 0.03%; +0.02%)</title><rect x="874.4" y="117" width="0.3" height="15.0" fill="rgb(255,209,209)" rx="2" ry="2" />
<text  x="877.35" y="127.5" ></text>
</g>
<g >
<title>__update_load_avg_se (1 samples, 0.02%; +0.02%)</title><rect x="1189.5" y="85" width="0.1" height="15.0" fill="rgb(255,209,209)" rx="2" ry="2" />
<text  x="1192.46" y="95.5" ></text>
</g>
<g >
<title>enqueue_entity (1 samples, 0.02%; +0.02%)</title><rect x="875.4" y="53" width="0.2" height="15.0" fill="rgb(255,209,209)" rx="2" ry="2" />
<text  x="878.43" y="63.5" ></text>
</g>
<g >
<title>__sched_text_start (2 samples, 0.03%; 0.00%)</title><rect x="872.4" y="181" width="0.3" height="15.0" fill="rgb(255,255,255)" rx="2" ry="2" />
<text  x="875.38" y="191.5" ></text>
</g>
<g >
<title>hrtimer_interrupt (4 samples, 0.06%; 0.00%)</title><rect x="1188.9" y="197" width="0.7" height="15.0" fill="rgb(255,255,255)" rx="2" ry="2" />
<text  x="1191.93" y="207.5" ></text>
</g>
<g >
<title>__sysvec_apic_timer_interrupt (13 samples, 0.20%; +0.02%)</title><rect x="872.7" y="213" width="2.4" height="15.0" fill="rgb(255,209,209)" rx="2" ry="2" />
<text  x="875.74" y="223.5" ></text>
</g>
<g >
<title>irq_work_run_list (1 samples, 0.02%; 0.00%)</title><rect x="1189.8" y="181" width="0.2" height="15.0" fill="rgb(255,255,255)" rx="2" ry="2" />
<text  x="1192.82" y="191.5" ></text>
</g>
<g >
<title>irq_work_single (1 samples, 0.02%; 0.00%)</title><rect x="1189.8" y="165" width="0.2" height="15.0" fill="rgb(255,255,255)" rx="2" ry="2" />
<text  x="1192.82" y="175.5" ></text>
</g>
<g >
<title>__remove_hrtimer (1 samples, 0.02%; 0.00%)</title><rect x="872.9" y="165" width="0.2" height="15.0" fill="rgb(255,255,255)" rx="2" ry="2" />
<text  x="875.92" y="175.5" ></text>
</g>
<g >
<title>enqueue_entity (1 samples, 0.02%; 0.00%)</title><rect x="873.3" y="101" width="0.2" height="15.0" fill="rgb(255,255,255)" rx="2" ry="2" />
<text  x="876.28" y="111.5" ></text>
</g>
<g >
<title>asm_sysvec_apic_timer_interrupt (8 samples, 0.12%; +0.03%)</title><rect x="1188.4" y="245" width="1.4" height="15.0" fill="rgb(255,209,209)" rx="2" ry="2" />
<text  x="1191.39" y="255.5" ></text>
</g>
<g >
<title>exit_to_user_mode_prepare (1 samples, 0.02%; 0.00%)</title><rect x="1188.7" y="213" width="0.2" height="15.0" fill="rgb(255,255,255)" rx="2" ry="2" />
<text  x="1191.75" y="223.5" ></text>
</g>
<g >
<title>all (6,587 samples, 100%)</title><rect x="10.0" y="341" width="1180.0" height="15.0" fill="rgb(255,255,255)" rx="2" ry="2" />
<text  x="13.00" y="351.5" ></text>
</g>
<g >
<title>cpu_bound (4,832 samples, 73.36%; +44.44%)</title><rect x="10.0" y="261" width="865.6" height="15.0" fill="rgb(255,0,0)" rx="2" ry="2" />
<text  x="13.00" y="271.5" >cpu_bound</text>
</g>
<g >
<title>update_load_avg (1 samples, 0.02%; +0.02%)</title><rect x="873.3" y="85" width="0.2" height="15.0" fill="rgb(255,209,209)" rx="2" ry="2" />
<text  x="876.28" y="95.5" ></text>
</g>
<g >
<title>rcu_core (2 samples, 0.03%; +0.02%)</title><rect x="875.1" y="149" width="0.3" height="15.0" fill="rgb(255,209,209)" rx="2" ry="2" />
<text  x="878.07" y="159.5" ></text>
</g>
<g >
<title>do_softirq_own_stack (3 samples, 0.05%; 0.00%)</title><rect x="875.1" y="197" width="0.5" height="15.0" fill="rgb(255,255,255)" rx="2" ry="2" />
<text  x="878.07" y="207.5" ></text>
</g>
<g >
<title>irqentry_exit_to_user_mode (2 samples, 0.03%; 0.00%)</title><rect x="872.4" y="229" width="0.3" height="15.0" fill="rgb(255,255,255)" rx="2" ry="2" />
<text  x="875.38" y="239.5" ></text>
</g>
<g >
<title>try_to_wake_up (1 samples, 0.02%; 0.00%)</title><rect x="1189.8" y="69" width="0.2" height="15.0" fill="rgb(255,255,255)" rx="2" ry="2" />
<text  x="1192.82" y="79.5" ></text>
</g>
<g >
<title>finish_task_switch (1 samples, 0.02%; 0.00%)</title><rect x="872.4" y="165" width="0.2" height="15.0" fill="rgb(255,255,255)" rx="2" ry="2" />
<text  x="875.38" y="175.5" ></text>
</g>
<g >
<title>raise_softirq (1 samples, 0.02%; +0.02%)</title><rect x="874.5" y="101" width="0.2" height="15.0" fill="rgb(255,209,209)" rx="2" ry="2" />
<text  x="877.53" y="111.5" ></text>
</g>
<g >
<title>hrtimer_interrupt (12 samples, 0.18%; 0.00%)</title><rect x="872.9" y="197" width="2.2" height="15.0" fill="rgb(255,255,255)" rx="2" ry="2" />
<text  x="875.92" y="207.5" ></text>
</g>
<g >
<title>account_user_time (1 samples, 0.02%; 0.00%)</title><rect x="873.6" y="117" width="0.2" height="15.0" fill="rgb(255,255,255)" rx="2" ry="2" />
<text  x="876.64" y="127.5" ></text>
</g>
<g >
<title>tick_sched_timer (3 samples, 0.05%; 0.00%)</title><rect x="1189.1" y="165" width="0.5" height="15.0" fill="rgb(255,255,255)" rx="2" ry="2" />
<text  x="1192.10" y="175.5" ></text>
</g>
<g >
<title>asm_call_irq_on_stack (3 samples, 0.05%; 0.00%)</title><rect x="875.1" y="181" width="0.5" height="15.0" fill="rgb(255,255,255)" rx="2" ry="2" />
<text  x="878.07" y="191.5" ></text>
</g>
<g >
<title>sysvec_apic_timer_interrupt (5 samples, 0.08%; 0.00%)</title><rect x="1188.9" y="229" width="0.9" height="15.0" fill="rgb(255,255,255)" rx="2" ry="2" />
<text  x="1191.93" y="239.5" ></text>
</g>
<g >
<title>__hrtimer_run_queues (10 samples, 0.15%; 0.00%)</title><rect x="872.9" y="181" width="1.8" height="15.0" fill="rgb(255,255,255)" rx="2" ry="2" />
<text  x="875.92" y="191.5" ></text>
</g>
<g >
<title>enqueue_task_fair (1 samples, 0.02%; 0.00%)</title><rect x="875.4" y="69" width="0.2" height="15.0" fill="rgb(255,255,255)" rx="2" ry="2" />
<text  x="878.43" y="79.5" ></text>
</g>
<g >
<title>__libc_start_main (6,587 samples, 100.00%; 0.00%)</title><rect x="10.0" y="293" width="1180.0" height="15.0" fill="rgb(255,255,255)" rx="2" ry="2" />
<text  x="13.00" y="303.5" >__libc_start_main</text>
</g>
<g >
<title>task_tick_fair (1 samples, 0.02%; -0.03%)</title><rect x="1189.5" y="101" width="0.1" height="15.0" fill="rgb(209,209,255)" rx="2" ry="2" />
<text  x="1192.46" y="111.5" ></text>
</g>
<g >
<title>update_curr (1 samples, 0.02%; +0.02%)</title><rect x="874.2" y="85" width="0.2" height="15.0" fill="rgb(255,209,209)" rx="2" ry="2" />
<text  x="877.17" y="95.5" ></text>
</g>
<g >
<title>schedule (1 samples, 0.02%; 0.00%)</title><rect x="1188.7" y="197" width="0.2" height="15.0" fill="rgb(255,255,255)" rx="2" ry="2" />
<text  x="1191.75" y="207.5" ></text>
</g>
<g >
<title>do_softirq_own_stack (2 samples, 0.03%; 0.00%)</title><rect x="872.0" y="197" width="0.4" height="15.0" fill="rgb(255,255,255)" rx="2" ry="2" />
<text  x="875.03" y="207.5" ></text>
</g>
<g >
<title>clockevents_program_event (2 samples, 0.03%; 0.00%)</title><rect x="874.7" y="181" width="0.4" height="15.0" fill="rgb(255,255,255)" rx="2" ry="2" />
<text  x="877.71" y="191.5" ></text>
</g>
<g >
<title>note_gp_changes (1 samples, 0.02%; +0.02%)</title><rect x="875.2" y="133" width="0.2" height="15.0" fill="rgb(255,209,209)" rx="2" ry="2" />
<text  x="878.25" y="143.5" ></text>
</g>
<g >
<title>hrtimer_wakeup (2 samples, 0.03%; 0.00%)</title><rect x="873.1" y="165" width="0.4" height="15.0" fill="rgb(255,255,255)" rx="2" ry="2" />
<text  x="876.10" y="175.5" ></text>
</g>
<g >
<title>sysvec_apic_timer_interrupt (16 samples, 0.24%; 0.00%)</title><rect x="872.7" y="229" width="2.9" height="15.0" fill="rgb(255,255,255)" rx="2" ry="2" />
<text  x="875.74" y="239.5" ></text>
</g>
<g >
<title>__do_softirq (3 samples, 0.05%; 0.00%)</title><rect x="875.1" y="165" width="0.5" height="15.0" fill="rgb(255,255,255)" rx="2" ry="2" />
<text  x="878.07" y="175.5" ></text>
</g>
<g >
<title>__wake_up_common (1 samples, 0.02%; 0.00%)</title><rect x="1189.8" y="101" width="0.2" height="15.0" fill="rgb(255,255,255)" rx="2" ry="2" />
<text  x="1192.82" y="111.5" ></text>
</g>
<g >
<title>arch_scale_freq_tick (2 samples, 0.03%; 0.00%)</title><rect x="1189.1" y="101" width="0.4" height="15.0" fill="rgb(255,255,255)" rx="2" ry="2" />
<text  x="1192.10" y="111.5" ></text>
</g>
<g >
<title>sysvec_irq_work (1 samples, 0.02%; 0.00%)</title><rect x="1189.8" y="229" width="0.2" height="15.0" fill="rgb(255,255,255)" rx="2" ry="2" />
<text  x="1192.82" y="239.5" ></text>
</g>
<g >
<title>try_to_wake_up (2 samples, 0.03%; 0.00%)</title><rect x="873.1" y="149" width="0.4" height="15.0" fill="rgb(255,255,255)" rx="2" ry="2" />
<text  x="876.10" y="159.5" ></text>
</g>
<g >
<title>__enqueue_entity (1 samples, 0.02%; +0.02%)</title><rect x="1188.7" y="133" width="0.2" height="15.0" fill="rgb(255,209,209)" rx="2" ry="2" />
<text  x="1191.75" y="143.5" ></text>
</g>
<g >
<title>pick_next_task_fair (1 samples, 0.02%; 0.00%)</title><rect x="872.6" y="165" width="0.1" height="15.0" fill="rgb(255,255,255)" rx="2" ry="2" />
<text  x="875.56" y="175.5" ></text>
</g>
<g >
<title>perf_pending_event (1 samples, 0.02%; 0.00%)</title><rect x="1189.8" y="149" width="0.2" height="15.0" fill="rgb(255,255,255)" rx="2" ry="2" />
<text  x="1192.82" y="159.5" ></text>
</g>
<g >
<title>main (6,587 samples, 100.00%; 0.00%)</title><rect x="10.0" y="277" width="1180.0" height="15.0" fill="rgb(255,255,255)" rx="2" ry="2" />
<text  x="13.00" y="287.5" >main</text>
</g>
<g >
<title>ttwu_queue_wakelist (1 samples, 0.02%; 0.00%)</title><rect x="1189.8" y="53" width="0.2" height="15.0" fill="rgb(255,255,255)" rx="2" ry="2" />
<text  x="1192.82" y="63.5" ></text>
</g>
<g >
<title>put_prev_entity (1 samples, 0.02%; 0.00%)</title><rect x="1188.7" y="149" width="0.2" height="15.0" fill="rgb(255,255,255)" rx="2" ry="2" />
<text  x="1191.75" y="159.5" ></text>
</g>
<g >
<title>asm_common_interrupt (2 samples, 0.03%; 0.00%)</title><rect x="872.0" y="245" width="0.4" height="15.0" fill="rgb(255,255,255)" rx="2" ry="2" />
<text  x="875.03" y="255.5" ></text>
</g>
<g >
<title>_start (6,587 samples, 100.00%; 0.00%)</title><rect x="10.0" y="309" width="1180.0" height="15.0" fill="rgb(255,255,255)" rx="2" ry="2" />
<text  x="13.00" y="319.5" >_start</text>
</g>
<g >
<title>enqueue_task_fair (2 samples, 0.03%; +0.02%)</title><rect x="873.1" y="117" width="0.4" height="15.0" fill="rgb(255,209,209)" rx="2" ry="2" />
<text  x="876.10" y="127.5" ></text>
</g>
<g >
<title>__hrtimer_run_queues (4 samples, 0.06%; 0.00%)</title><rect x="1188.9" y="181" width="0.7" height="15.0" fill="rgb(255,255,255)" rx="2" ry="2" />
<text  x="1191.93" y="191.5" ></text>
</g>
</g>
</svg>
